<svg width="65" height="65" viewBox="0 0 65 65" fill="none" xmlns="http://www.w3.org/2000/svg">
<path d="M27.0833 0C12.1604 0 0 12.1604 0 27.0833C0 42.0063 12.1604 54.1667 27.0833 54.1667C42.0063 54.1667 54.1667 42.0063 54.1667 27.0833C54.1667 12.1604 42.0063 0 27.0833 0ZM27.0833 11.1312C32.0396 11.1312 36.075 15.1666 36.075 20.1229C36.075 25.0791 32.0396 29.1146 27.0833 29.1146C22.1271 29.1146 18.0917 25.0791 18.0917 20.1229C18.0917 15.1666 22.1271 11.1312 27.0833 11.1312ZM27.0833 50.1042C20.4479 50.1042 14.4625 47.2875 10.2646 42.7916C9.34375 41.8166 8.50417 40.7333 7.74584 39.5687C12.8917 35.6416 19.8521 33.3937 27.0833 33.3937C34.3146 33.3937 41.275 35.6416 46.4208 39.5687C45.6625 40.7333 44.8229 41.8166 43.9021 42.7916C39.7042 47.2875 33.7188 50.1042 27.0833 50.1042Z" fill="black"/>
</svg>
